<svg xmlns="http://www.w3.org/2000/svg" xmlns:xlink="http://www.w3.org/1999/xlink" class="svg-canvas" viewBox="89.84992852187122 -44.12369347830948 620.3000506594549 620.3000506594549" width="1200" height="1200" preserveAspectRatio="none" version="1.1">
        <!--滤镜-->
        <defs/>

        <!-- 背景 -->
        

        <!--元素-->
        
                <g id="shape_Vp1EUSXLO8" ref="shape_Vp1EUSXLO8" key="shape_Vp1EUSXLO8" mask="">
                  <g transform="translate(132.04539372788,60) rotate(0,267.95460627212,118.12016003694) scale(1,1)" style="opacity: 1;mix-blend-mode: undefined;" filter="">
                    <!--普通元素-->
                    <svg xmlns="http://www.w3.org/2000/svg" xmlns:xlink="http://www.w3.org/1999/xlink" version="1.1" id="图层_1" x="0px" y="0px" width="535.90921254424" height="236.24032007389" viewBox="2.3000030517578125 1.5400009155273438 195.68008422851562 86.25999450683594" style="enable-background:new 0 0 200 90;" xml:space="preserve" class="style-removed" preserveAspectRatio="none" data-parent="shape_Vp1EUSXLO8">

<g>
	<circle cx="72.14" cy="21.75" r="20.21" fill="#DB1D5B" stroke-width="0"/>
	<circle cx="128.06" cy="21.75" r="20.21" fill="#0093F1" stroke-width="0"/>
</g>
<path d="M96.23,55.57c-26.79-0.53-52.25-6.51-75.29-16.9c-1.31-0.57-2.6-1.18-3.89-1.8c-0.95-0.26-1.93-0.39-2.96-0.39  c-6.52,0-11.79,5.28-11.79,11.78c0,3.35,1.4,6.39,3.64,8.53c0.83,0.62,1.68,1.24,2.53,1.85c0,0,0.02,0.02,0.03,0.02  c24.86,17.71,55.07,28.35,87.72,29.14V55.57z" fill="#DB1D5B" stroke-width="0"/>
<path d="M186.21,36.48c-1.08,0-2.14,0.15-3.14,0.42l-0.02,0.02c-1.14,0.56-2.32,1.09-3.48,1.6  c-0.02,0-0.02,0.02-0.03,0.02c-22.96,10.42-48.33,16.42-75.03,17.02v32.21c32.36-0.89,62.3-11.45,86.98-28.97  c0.02,0,0.02,0,0.03-0.02c1.05-0.74,2.07-1.5,3.1-2.27c0,0,0.02,0,0.03-0.02c2.06-2.12,3.33-5.01,3.33-8.23  C198,41.75,192.72,36.48,186.21,36.48z" fill="#0093F1" stroke-width="0"/>
</svg>
                  </g>
                </g>
                <g id="shape_cRbIR4MXFu" ref="shape_cRbIR4MXFu" key="shape_cRbIR4MXFu" mask="">
                  <g transform="translate(-222.19789155883007,-142.60929166567007) rotate(0,615.71195677313,537.21195677313) scale(1,1)" style="opacity: 1;mix-blend-mode: undefined;" filter="">
                    <!--普通元素-->
                    <svg xmlns="http://www.w3.org/2000/svg" xmlns:xlink="http://www.w3.org/1999/xlink" version="1.1" width="1231.42391354626" height="1074.42391354626" viewBox="0 0 1231.42391354626 1074.42391354626" data-ligature="true" data-parent="shape_cRbIR4MXFu"><g data-role="text" data-width="307.14" data-height="153" transform="translate(462.14195677313006, 460.71195677313005)"><path d="M148.81-77.09L148.81-68.49L92.76-68.49L133.61 13.21Q134.07 14.13 134.99 14.59Q135.91 15.05 136.98 15.36L136.98 15.36L148.81 17.35L148.81 25.95L117.63 20.73Q115.02 20.27 112.72 18.97Q110.42 17.66 109.19 15.36L109.19 15.36L76.78-48.99L44.38 15.36Q43.15 17.66 40.85 18.97Q38.55 20.27 35.94 20.73L35.94 20.73L4.76 25.95L4.76 17.35L16.59 15.36Q17.66 15.05 18.58 14.59Q19.50 14.13 19.96 13.21L19.96 13.21L60.81-68.49L4.76-68.49L4.76-77.09L64.65-77.09L64.65-118.10L88.92-118.10L88.92-77.09L148.81-77.09Z" transform="translate(0 128) " fill="rgb(219, 29, 91)" stroke="rgb(219, 29, 91)" stroke-width="0.256" data-glyph-w="153.57" data-glyph-h="160.78778999999997" data-glyph-ascender="131.91663" data-glyph-descender="-28.871159999999996" data-kerning="0"/><path d="M88.92-46.69L148.81-46.69L148.81-38.09L4.76-38.09L4.76-46.69L64.65-46.69L64.65-66.19L12.44-66.19L12.44-74.79L64.65-74.79L64.65-94.29L7.83-94.29L7.83-102.89L35.94-102.89L29.02-118.10L53.29-118.10L60.20-102.89L93.37-102.89L100.28-118.10L124.55-118.10L117.63-102.89L145.74-102.89L145.74-94.29L88.92-94.29L88.92-74.79L141.13-74.79L141.13-66.19L88.92-66.19L88.92-46.69ZM97.21-10.90L134.07 14.44Q134.68 14.74 135.30 14.90Q135.91 15.05 136.52 15.20L136.52 15.20L148.81 17.35L148.81 25.95L113.03 21.19Q109.19 20.73 106.27 18.74L106.27 18.74L76.78-2.76L47.30 18.74Q44.38 20.73 40.54 21.19L40.54 21.19L4.76 25.95L4.76 17.35L17.05 15.20Q17.66 15.05 18.27 14.90Q18.89 14.74 19.50 14.44L19.50 14.44L56.36-10.90L9.67-10.90L9.67-19.50L64.65-19.50L64.65-33.79L88.92-33.79L88.92-19.50L143.90-19.50L143.90-10.90L97.21-10.90Z" transform="translate(153.57 128) " fill="rgb(219, 29, 91)" stroke="rgb(219, 29, 91)" stroke-width="0.256" data-glyph-w="153.57" data-glyph-h="160.78778999999997" data-glyph-ascender="131.91663" data-glyph-descender="-28.871159999999996" data-kerning="0"/></g></svg>
                  </g>
                </g>
      </svg>
